<svg width="13" height="15" viewBox="0 0 13 15" fill="none" xmlns="http://www.w3.org/2000/svg">
<path fill-rule="evenodd" clip-rule="evenodd" d="M3.84131 8.50065C3.84131 8.13246 4.13979 7.83398 4.50798 7.83398H8.50798C8.87617 7.83398 9.17464 8.13246 9.17464 8.50065C9.17464 8.86884 8.87617 9.16732 8.50798 9.16732H4.50798C4.13979 9.16732 3.84131 8.86884 3.84131 8.50065Z" fill="#424551"/>
<path fill-rule="evenodd" clip-rule="evenodd" d="M3.84131 11.0007C3.84131 10.6325 4.13979 10.334 4.50798 10.334H6.50798C6.87617 10.334 7.17464 10.6325 7.17464 11.0007C7.17464 11.3688 6.87617 11.6673 6.50798 11.6673H4.50798C4.13979 11.6673 3.84131 11.3688 3.84131 11.0007Z" fill="#424551"/>
<path fill-rule="evenodd" clip-rule="evenodd" d="M4.53659 0.529247C4.66161 0.404222 4.83118 0.333984 5.00799 0.333984H9.50799C10.9808 0.333984 12.1747 1.52789 12.1747 3.00065L12.1747 12.0007C12.1747 13.4734 10.9808 14.6673 9.508 14.6673H3.50798C2.03521 14.6673 0.841305 13.4734 0.841309 12.0006L0.841325 4.50065C0.841326 4.32384 0.911563 4.15427 1.03659 4.02925L4.53659 0.529247ZM4.8413 2.11015V4.33398H2.61747L4.8413 2.11015ZM2.17466 5.66732L2.17464 12.0006C2.17464 12.737 2.77159 13.334 3.50798 13.334H9.508C10.2444 13.334 10.8413 12.737 10.8413 12.0007L10.8413 3.00065C10.8413 2.26427 10.2444 1.66732 9.50799 1.66732H6.17464V5.00065C6.17464 5.36884 5.87616 5.66732 5.50797 5.66732H2.17466Z" fill="#424551"/>
</svg>
