<svg width="16" height="15" viewBox="0 0 16 15" fill="none" xmlns="http://www.w3.org/2000/svg">
<path fill-rule="evenodd" clip-rule="evenodd" d="M4.94547 0.333984C5.31366 0.333984 5.61214 0.632461 5.61214 1.00065V1.33399L10.2788 1.334V1.00065C10.2788 0.632462 10.5773 0.333985 10.9455 0.333984C11.3137 0.333984 11.6121 0.632461 11.6121 1.00065V1.334L12.4455 1.33401C13.9182 1.33401 15.1121 2.52792 15.1121 4.00067V12.0006C15.1121 13.4734 13.9182 14.6673 12.4455 14.6673L3.44548 14.6673C1.97271 14.6673 0.778809 13.4734 0.778809 12.0007L0.778809 5.50078L0.778809 4.00065C0.778809 2.52789 1.97272 1.33398 3.44548 1.33399L4.27881 1.33399V1.00065C4.27881 0.632461 4.57728 0.333984 4.94547 0.333984ZM4.27881 2.66732L3.44548 2.66732C2.7091 2.66732 2.11214 3.26427 2.11214 4.00065V4.83398H13.7788V4.00067C13.7788 3.26429 13.1819 2.66734 12.4455 2.66734L11.6121 2.66734V3.00065C11.6121 3.36884 11.3137 3.66732 10.9455 3.66732C10.5773 3.66732 10.2788 3.36884 10.2788 3.00065V2.66734L5.61214 2.66733V3.00065C5.61214 3.36884 5.31366 3.66732 4.94547 3.66732C4.57728 3.66732 4.27881 3.36884 4.27881 3.00065V2.66732ZM13.7788 6.16732H2.11214L2.11214 12.0007C2.11214 12.737 2.70909 13.334 3.44548 13.334L12.4455 13.334C13.1819 13.334 13.7788 12.737 13.7788 12.0006V6.16732Z" fill="#787A80"/>
</svg>
