<svg width="16" height="15" viewBox="0 0 16 15" fill="none" xmlns="http://www.w3.org/2000/svg">
<path d="M8.61182 3.83268C8.61182 3.46449 8.31334 3.16602 7.94515 3.16602C7.57696 3.16602 7.27848 3.46449 7.27848 3.83268V7.49935C7.27848 7.67616 7.34872 7.84573 7.47374 7.97075L9.47374 9.97075C9.73409 10.2311 10.1562 10.2311 10.4166 9.97075C10.6769 9.7104 10.6769 9.28829 10.4166 9.02794L8.61182 7.22321V3.83268Z" fill="#787A80"/>
<path fill-rule="evenodd" clip-rule="evenodd" d="M7.94515 0.166016C3.89506 0.166016 0.611816 3.44926 0.611816 7.49935C0.611816 11.5494 3.89506 14.8327 7.94515 14.8327C11.9952 14.8327 15.2785 11.5494 15.2785 7.49935C15.2785 3.44926 11.9952 0.166016 7.94515 0.166016ZM1.94515 7.49935C1.94515 4.18564 4.63144 1.49935 7.94515 1.49935C11.2589 1.49935 13.9451 4.18564 13.9451 7.49935C13.9451 10.8131 11.2589 13.4993 7.94515 13.4993C4.63144 13.4993 1.94515 10.8131 1.94515 7.49935Z" fill="#787A80"/>
</svg>
