<svg width="13" height="17" viewBox="0 0 13 17" fill="none" xmlns="http://www.w3.org/2000/svg">
<path fill-rule="evenodd" clip-rule="evenodd" d="M3.07865 4.76706C3.07865 2.63156 4.80981 0.900391 6.94531 0.900391C9.08081 0.900391 10.812 2.63156 10.812 4.76706V7.96706C10.812 10.1026 9.08081 11.8337 6.94531 11.8337C4.80981 11.8337 3.07865 10.1026 3.07865 7.96706V4.76706ZM6.94531 2.23372C5.54619 2.23372 4.41198 3.36794 4.41198 4.76706V7.96706C4.41198 9.36618 5.54619 10.5004 6.94531 10.5004C8.34443 10.5004 9.47865 9.36618 9.47865 7.96706V4.76706C9.47865 3.36794 8.34443 2.23372 6.94531 2.23372Z" fill="#424551"/>
<path fill-rule="evenodd" clip-rule="evenodd" d="M1.61198 6.23372C1.98017 6.23372 2.27865 6.5322 2.27865 6.90039V7.96706C2.27865 10.5444 4.36798 12.6337 6.94531 12.6337C9.52264 12.6337 11.612 10.5444 11.612 7.96706V6.90039C11.612 6.5322 11.9105 6.23372 12.2786 6.23372C12.6468 6.23372 12.9453 6.5322 12.9453 6.90039V7.96706C12.9453 11.2808 10.259 13.9671 6.94531 13.9671C3.6316 13.9671 0.945312 11.2808 0.945312 7.96706V6.90039C0.945312 6.5322 1.24379 6.23372 1.61198 6.23372Z" fill="#424551"/>
<path fill-rule="evenodd" clip-rule="evenodd" d="M6.94531 13.1671C7.3135 13.1671 7.61198 13.4655 7.61198 13.8337V14.7671H9.07865C9.44684 14.7671 9.74531 15.0655 9.74531 15.4337C9.74531 15.8019 9.44684 16.1004 9.07865 16.1004H4.81198C4.44379 16.1004 4.14531 15.8019 4.14531 15.4337C4.14531 15.0655 4.44379 14.7671 4.81198 14.7671H6.27865V13.8337C6.27865 13.4655 6.57712 13.1671 6.94531 13.1671Z" fill="#424551"/>
</svg>
