<svg width="16" height="15" viewBox="0 0 16 15" fill="none" xmlns="http://www.w3.org/2000/svg">
<path fill-rule="evenodd" clip-rule="evenodd" d="M10.9383 6.44002C11.6365 6.97368 11.6365 8.02507 10.9383 8.55873L7.88497 10.8924C7.00757 11.5629 5.74198 10.9373 5.74197 9.833V5.16575C5.74197 4.06144 7.00757 3.43581 7.88497 4.1064L10.9383 6.44002ZM10.1286 7.49938L7.07531 5.16575L7.07531 9.833L10.1286 7.49938Z" fill="#424551"/>
<path fill-rule="evenodd" clip-rule="evenodd" d="M8.2264 1.49935C4.91269 1.49935 2.2264 4.18564 2.2264 7.49935C2.2264 10.8131 4.91269 13.4993 8.2264 13.4993C11.5401 13.4993 14.2264 10.8131 14.2264 7.49935C14.2264 4.18564 11.5401 1.49935 8.2264 1.49935ZM0.893066 7.49935C0.893066 3.44926 4.17631 0.166016 8.2264 0.166016C12.2765 0.166016 15.5597 3.44926 15.5597 7.49935C15.5597 11.5494 12.2765 14.8327 8.2264 14.8327C4.17631 14.8327 0.893066 11.5494 0.893066 7.49935Z" fill="#424551"/>
</svg>
